<?xml version="1.0" encoding="UTF-8"?>
<svg id="Livello_1" data-name="Livello 1" xmlns="http://www.w3.org/2000/svg" version="1.1" viewBox="0 0 214 58">
  <defs>
    <style>
      .cls-1 {
        fill: #f39e7f;
      }

      .cls-1, .cls-2, .cls-3, .cls-4, .cls-5 {
        stroke-width: 0px;
      }

      .cls-1, .cls-2, .cls-3, .cls-5 {
        fill-rule: evenodd;
      }

      .cls-2 {
        fill: #0caf9f;
      }

      .cls-3 {
        fill: #067175;
      }

      .cls-4 {
        fill: #258497;
      }

      .cls-5 {
        fill: #f3c6bc;
      }
    </style>
  </defs>
  <path id="path196" class="cls-1" d="M66.4,49.8c.2-2.1.4-4.2-1.9-5.6-.5-.4-1-.8-1.1-1.5-.4-1.5-.3-1.7-.3-2.6.5-.5,4-4.1,4-4.1,0,0,2.1,5.8,2.6,6.5,2,1.5,2.5,3.5,2.1,5.9,0,.4,0,.9,0,1.3-1.8,0-3.6,0-5.4,0h0Z"/>
  <path id="path158" class="cls-4" d="M95.9,31.6v8.3h-4.3v-21.2h4.3v7.5c1.3-1.3,2.7-2,4.4-2s3,.6,4.1,1.7c1.1,1.1,1.7,2.7,1.7,4.6v9.3h-4.3v-8.4c0-2.4-.9-3.5-2.6-3.5s-1.6.3-2.2.9c-.6.6-1,1.5-1,2.7h0Z"/>
  <path id="path160" class="cls-4" d="M110.3,22.6c-.5-.5-.7-1.1-.7-1.8s.2-1.3.7-1.8c.5-.5,1.1-.7,1.8-.7s1.3.2,1.8.7c.5.5.7,1.1.7,1.8s-.2,1.3-.7,1.8c-.5.5-1.1.7-1.8.7s-1.3-.2-1.8-.7Z"/>
  <rect id="rect162" class="cls-4" x="109.9" y="24.5" width="4.3" height="15.4"/>
  <path id="path164" class="cls-4" d="M117.7,32.6v-4h7.1v4h-7.1Z"/>
  <path id="path166" class="cls-4" d="M133.5,23.9c-.4.4-.6.8-.6,1.4s.3,1,.8,1.4c.5.3,1.7.7,3.6,1.2,1.9.5,3.4,1.2,4.4,2.1,1,.9,1.6,2.3,1.6,4.1s-.7,3.2-2,4.4c-1.3,1.1-3.1,1.7-5.3,1.7-3.2,0-6-1.2-8.5-3.5l2.7-3.3c2.2,1.9,4.1,2.8,6,2.8s1.5-.2,1.9-.5c.5-.4.7-.8.7-1.4s-.2-1.1-.7-1.4c-.5-.4-1.5-.7-2.9-1.1-2.3-.6-4-1.3-5.1-2.2-1.1-.9-1.6-2.3-1.6-4.2s.7-3.4,2-4.4c1.4-1,3.1-1.5,5.1-1.5s2.7.2,4,.7c1.3.5,2.5,1.1,3.5,1.9l-2.3,3.3c-1.7-1.3-3.5-2-5.4-2s-1.3.2-1.8.5h0Z"/>
  <path id="path168" class="cls-4" d="M151.3,27.6v6.9c0,.6.2,1.1.5,1.4.3.3.7.5,1.1.5.8,0,1.5-.4,2-1.1l1.6,3c-1.3,1.2-2.7,1.8-4.2,1.8s-2.7-.5-3.7-1.5c-1-1-1.5-2.3-1.5-4v-7.1h-1.8v-3.1h1.8v-4.6h4.3v4.6h3.7v3.1h-3.7Z"/>
  <path id="path170" class="cls-4" d="M174,32.2c0,2.2-.8,4.1-2.3,5.6-1.5,1.5-3.5,2.3-5.8,2.3s-4.3-.8-5.8-2.3c-1.5-1.5-2.3-3.4-2.3-5.6s.8-4.1,2.3-5.6c1.5-1.5,3.5-2.3,5.8-2.3s4.3.8,5.8,2.3c1.5,1.5,2.3,3.4,2.3,5.6ZM162,32.2c0,1.3.4,2.3,1.1,3.1.7.8,1.6,1.2,2.7,1.2s2-.4,2.7-1.2c.7-.8,1.1-1.8,1.1-3.1s-.4-2.3-1.1-3.1-1.6-1.2-2.7-1.2-2,.4-2.7,1.2c-.7.8-1.1,1.8-1.1,3.1Z"/>
  <path id="path172" class="cls-4" d="M185.2,28.3c-1.3,0-2.2.5-2.9,1.4-.6.9-.9,2.1-.9,3.6v6.7h-4.3v-15.4h4.3v2c.6-.6,1.2-1.2,2.1-1.6.8-.4,1.7-.7,2.5-.7v4s-.8,0-.8,0Z"/>
  <path id="path174" class="cls-4" d="M189.2,22.6c-.5-.5-.7-1.1-.7-1.8s.2-1.3.7-1.8,1.1-.7,1.8-.7,1.3.2,1.8.7.7,1.1.7,1.8-.2,1.3-.7,1.8c-.5.5-1.1.7-1.8.7s-1.3-.2-1.8-.7Z"/>
  <rect id="rect176" class="cls-4" x="188.9" y="24.5" width="4.3" height="15.4"/>
  <path id="path178" class="cls-4" d="M210.3,39.9h-4v-1.9c-1.1,1.4-2.5,2.1-4.1,2.1s-3-.5-4.1-1.4c-1.1-.9-1.7-2.2-1.7-3.8s.6-2.7,1.7-3.5c1.1-.8,2.7-1.2,4.7-1.2h3.2c0-1.7-.9-2.5-2.6-2.5s-1.5.1-2.4.4c-.8.3-1.5.7-2.1,1.1l-1.9-2.8c2-1.5,4.3-2.2,6.9-2.2s3.4.5,4.6,1.4c1.2.9,1.8,2.4,1.8,4.4v9.8ZM206,34v-.7h-2.7c-1.7,0-2.6.5-2.6,1.6s.2,1,.6,1.3,1,.4,1.8.4,1.4-.2,2-.7c.6-.5.9-1.1.9-1.9h0Z"/>
  <path id="path184" class="cls-4" d="M27.3,11.5c.3-2.8.5-5.2.7-8,0-.5-.1-1.1-.2-1.1h-2.9v3.6h-4c0-.6-.2-3-.3-3.6h-2.9c0,.6-.2,3-.2,3.6h-3.1c0-.6-.1-2.4-.2-3.6h-3.6c.2,2.4.4,4.9.5,7.6,0,1.5.4,2.8,1.4,4,.6.7.9,2.1.8,3.1-.2,2.7-.4,7.2-.6,9.9,0,1.1-.2,3.1.2,4,2.7,5.4,7,8.8,12.2,12,.5.3,1.1.5,1.9.9-.1-1.8-.3-3.2-.4-4.6-.3-4.7-.5-9.3-.8-14-.1-2-.2-5.8-.5-7.8-.2-1.3,0-2.8.8-3.8.5-.6,1-1.4,1.1-2.2h0Z"/>
  <path id="path196-2" data-name="path196" class="cls-1" d="M17.9,49.8c-1.8,0-3.6,0-5.4,0,0-.4,0-.9,0-1.3-.3-2.3.2-4.4,2.1-5.9.4-.7,2.6-6.5,2.6-6.5,0,0,3.4,3.5,4,4.1,0,.9.1,1.1-.3,2.6s-.6,1-1.1,1.5c-2.2,1.4-2,3.5-1.9,5.6h0Z"/>
  <path id="path198" class="cls-5" d="M16.5,40.3c-.3.7-1,1.9-1.4,2.4-1.6,1.8-2.5,3.5-2.1,5.9,0,.4,0,.9,0,1.3h0c-2.4,0-4.8,0-7.2,0,.2-4.1.5-8,0-13.4-.5-6,2.4-10.6,7.2-14.1h0c0,2.4,0,4.9,0,7.3,0,.4-.2.9.2,1.1.4.3.7-.3,1-.5,1.9-1.6,3.7-3.1,5.6-4.7,1-.8,2-.9,2.9,0,1,1,.5,2-.3,2.9-.9.9-1.8,1.9-2.8,2.7-1.3,1.1-2,2.4-1.8,4.2,0,.4,0,.9,0,1.3-.2.9-.8,2.7-1.2,3.6Z"/>
  <path id="path212" class="cls-4" d="M39.5,23.9c0-1.8-.2-4.2-.2-4.2h-3.8c0,0-.3,2.4-.3,4.2h-3.4c0-1.2-.2-2.4-.3-4.2-1,0-3,0-3.8,0,0,1.3,0,1.7,0,2.8.2,2.6.4,5.2.6,7.8.3,4.5.5,9.1.8,13.6,0,.5.3,1.3.8,1.5,2,1,4.2,1.5,6.6,1.9,0-.9.2-1.5.2-2.2,0-1.8,0-3.6,0-5.5,0-2.3,1.7-4.4,3.8-5.1,3.5-1.1,7,1.4,7.1,5.2,0,1.8,0,3.6,0,5.5,0,.6.1,1.3.3,2.2,2-.6,3.7-1,5.5-1.5,1-.3,1.5-.8,1.6-1.9.2-2.2.5-4.4.7-6.7.4-5.7.7-11.2,1-16.9,0-.3,0-.7-.2-.7h-4c-.1,0-.2,2.4-.3,4.2h-3.7c-.1-1.8-.2-4.2-.3-4.2h-4.1c0,0-.2,2.4-.2,4.2h-4.3Z"/>
  <path id="path214" class="cls-4" d="M73.7,2.5h-3.4c0,.6-.2,3-.2,3.6h-3.1c0-.6-.2-3-.2-3.6h-2.9c0,.6-.2,3-.2,3.6h-3.1c0-.6-.2-3-.3-3.6h-3.7c0,.6,0,.9,0,1.5.2,2.2.5,4.2.6,6.4,0,1.5.5,2.7,1.4,3.9.5.6.7,2.1.7,2.9-.2,4.1-.6,10-.9,14.1-.3,3.6-.5,7.2-.7,10.9,0,.5,0,1,0,1.8.8-.4,1.4-.6,2-1,5-3.2,9.4-7.3,12.1-12.6.4-.8.3-1.7.3-2.6-.1-2.5-.4-6.7-.6-9.2-.2-1.7,0-3.8,1.1-5.2.6-.6.8-1.6.9-2.5.2-1.6.3-2.8.4-4.4,0-1.4,0-3.4,0-4h0Z"/>
  <path id="path220" class="cls-2" d="M79,49.8c-2.4,0-4.8,0-7.2,0,0,2.2,0,3.2,0,5.4,2.5,0,5,0,7.4,0,.8,0,1-.3,1-1,0-1.5,0-1.8,0-3.3,0-1-.4-1.2-1.2-1.1Z"/>
  <path id="path198-2" data-name="path198" class="cls-5" d="M66.8,36.7c0-.4,0-.9,0-1.3.2-1.8-.4-3.1-1.8-4.2-1-.8-1.9-1.8-2.8-2.7-.8-.9-1.4-1.8-.3-2.9.9-.9,2-.8,2.9,0,1.9,1.6,3.7,3.2,5.6,4.7.3.2.5.8,1,.5.4-.2.2-.7.2-1.1,0-2.4,0-4.9,0-7.3h0c4.8,3.5,7.7,8,7.2,14.1-.5,5.5-.2,9.4,0,13.4-2.4,0-4.8,0-7.2,0h0c0-.5,0-.9,0-1.4.3-2.3-.5-4-2.1-5.9s-1.2-1.7-1.4-2.4-1-2.7-1.2-3.6Z"/>
  <path id="path222" class="cls-3" d="M71.8,55.3c0-2.2,0-3.2,0-5.4h0c-1.8,0-3.6,0-5.4,0-1.5-.3-1.9.4-1.8,1.9.1,1.2,0,1.2,0,2.4,0,.8.1,1.3,1.1,1.2,2,0,4.1,0,6.1,0Z"/>
  <path id="path192" class="cls-2" d="M5.2,49.8c2.4,0,4.8,0,7.2,0,0,2.2,0,3.5,0,5.7-2.5,0-5,0-7.4,0-.8,0-1-.3-1-1,0-1.5,0-1.8,0-3.3,0-1,.4-1.4,1.2-1.3h0Z"/>
  <path id="path194" class="cls-3" d="M12.4,55.5c0-2.2,0-3.5,0-5.6h0c1.8,0,3.6,0,5.4,0,1.5-.3,1.9.4,1.8,1.9-.1,1.2,0,1.2,0,2.4,0,.8-.1,1.4-1.1,1.4-2,0-4.1,0-6.1,0Z"/>
</svg>